<svg width="108" height="108" viewBox="0 0 108 108" fill="none" xmlns="http://www.w3.org/2000/svg">
<g clip-path="url(#clip0_4_41)">
<mask id="mask0_4_41" style="mask-type:luminance" maskUnits="userSpaceOnUse" x="0" y="0" width="108" height="108">
<path d="M108 54C108 24.1766 83.8234 0 54 0C24.1766 0 0 24.1766 0 54C0 83.8234 24.1766 108 54 108C83.8234 108 108 83.8234 108 54Z" fill="white"/>
</mask>
<g mask="url(#mask0_4_41)">
<path d="M108 3.05176e-05H0V108H108V3.05176e-05Z" fill="#73B06F"/>
<path d="M19.0394 58.3104L74.9939 103.621C82.7196 109.878 94.0542 108.686 100.31 100.961L145.621 45.0061C151.878 37.2804 150.686 25.9458 142.961 19.6897L87.006 -25.6214C79.2803 -31.8775 67.9458 -30.6862 61.6896 -22.9605L16.3785 32.994C10.1224 40.7197 11.3137 52.0542 19.0394 58.3104Z" fill="#405059"/>
<path d="M58.1415 43.5552C63.5983 47.4568 69.5244 48.3955 75.9199 46.371" stroke="white" stroke-width="2.22222" stroke-linecap="round"/>
<path d="M49.648 30.0604C49.9072 28.4239 49.1224 26.9397 47.895 26.7453C46.6677 26.5509 45.4626 27.72 45.2034 29.3564C44.9442 30.9929 45.7291 32.4771 46.9564 32.6714C48.1838 32.8658 49.3888 31.6968 49.648 30.0604Z" fill="white"/>
<path d="M91.1309 36.6306C91.3901 34.9942 90.6053 33.51 89.3779 33.3156C88.1506 33.1212 86.9455 34.2902 86.6863 35.9267C86.4271 37.5631 87.212 39.0473 88.4393 39.2417C89.6667 39.4361 90.8717 38.2671 91.1309 36.6306Z" fill="white"/>
</g>
</g>
<defs>
<clipPath id="clip0_4_41">
<rect width="108" height="108" fill="white"/>
</clipPath>
</defs>
</svg>
