<svg width="673" height="610" viewBox="0 0 673 610" fill="none" xmlns="http://www.w3.org/2000/svg">
<g clip-path="url(#clip0_2_80)">
<path d="M473.334 596.354L461.866 596.353L456.411 552.077L473.336 552.079L473.334 596.354Z" fill="#FFB6B6"/>
<path d="M473.738 608.329L438.472 608.327V607.881C438.473 604.237 439.919 600.743 442.493 598.166C445.067 595.59 448.558 594.142 452.199 594.142L458.641 589.251L470.66 594.143H473.738L473.738 608.329Z" fill="#2F2E41"/>
<path d="M622.017 533.413L614.609 542.175L577.315 517.75L588.246 504.817L622.017 533.413Z" fill="#FFB6B6"/>
<path d="M631.411 540.838L608.635 567.787L608.294 567.499C605.515 565.145 603.784 561.783 603.481 558.152C603.178 554.521 604.328 550.918 606.679 548.136L607.109 540.054L618.603 534.028L620.591 531.676L631.411 540.838Z" fill="#2F2E41"/>
<path d="M64.2853 11.5934H33.0125C31.4765 11.5934 30.0035 10.9827 28.9174 9.89561C27.8314 8.80851 27.2212 7.33409 27.2212 5.79671C27.2212 4.25933 27.8314 2.78491 28.9174 1.69781C30.0035 0.610719 31.4765 0 33.0125 0H64.2853C65.8212 0 67.2943 0.610719 68.3803 1.69781C69.4664 2.78491 70.0765 4.25933 70.0765 5.79671C70.0765 7.33409 69.4664 8.80851 68.3803 9.89561C67.2943 10.9827 65.8212 11.5934 64.2853 11.5934Z" fill="white"/>
<path d="M269.296 11.0138C272.175 11.0138 274.508 8.67801 274.508 5.79672C274.508 2.91543 272.175 0.579681 269.296 0.579681C266.417 0.579681 264.084 2.91543 264.084 5.79672C264.084 8.67801 266.417 11.0138 269.296 11.0138Z" fill="white"/>
<path d="M285.512 11.0138C288.39 11.0138 290.724 8.67801 290.724 5.79672C290.724 2.91543 288.39 0.579681 285.512 0.579681C282.633 0.579681 280.299 2.91543 280.299 5.79672C280.299 8.67801 282.633 11.0138 285.512 11.0138Z" fill="white"/>
<path d="M301.727 11.0138C304.606 11.0138 306.939 8.67801 306.939 5.79672C306.939 2.91543 304.606 0.579681 301.727 0.579681C298.849 0.579681 296.515 2.91543 296.515 5.79672C296.515 8.67801 298.849 11.0138 301.727 11.0138Z" fill="white"/>
<path d="M97.2932 164.616H41.6971C37.8586 164.611 34.1785 163.083 31.4643 160.366C28.75 157.65 27.2232 153.966 27.2189 150.124V94.4756C27.2233 90.6335 28.75 86.9499 31.4643 84.2331C34.1785 81.5163 37.8586 79.9881 41.6971 79.9838H97.2932C101.132 79.9881 104.812 81.5163 107.526 84.2331C110.24 86.9499 111.767 90.6335 111.771 94.4756V150.124C111.767 153.966 110.24 157.65 107.526 160.366C104.812 163.083 101.132 164.611 97.2932 164.616Z" fill="#6C63FF"/>
<path d="M293.04 164.616H237.444C233.606 164.611 229.926 163.083 227.211 160.366C224.497 157.65 222.97 153.966 222.966 150.124V94.4756C222.97 90.6335 224.497 86.9499 227.211 84.2331C229.926 81.5163 233.606 79.9881 237.444 79.9838H293.04C296.879 79.9881 300.559 81.5163 303.273 84.2331C305.987 86.9499 307.514 90.6335 307.518 94.4756V150.124C307.514 153.966 305.987 157.65 303.273 160.366C300.559 163.083 296.879 164.611 293.04 164.616Z" fill="#6C63FF"/>
<path d="M194.586 164.616H138.99C135.152 164.611 131.472 163.083 128.758 160.366C126.043 157.65 124.517 153.966 124.512 150.124V94.4756C124.517 90.6335 126.043 86.9499 128.758 84.2331C131.472 81.5163 135.152 79.9881 138.99 79.9838H194.586C198.425 79.9881 202.105 81.5163 204.819 84.2331C207.534 86.9499 209.06 90.6335 209.065 94.4756V150.124C209.06 153.966 207.534 157.65 204.819 160.366C202.105 163.083 198.425 164.611 194.586 164.616Z" fill="#6C63FF"/>
<path d="M41.6971 202.874C38.1656 202.878 34.78 204.284 32.2828 206.783C29.7857 209.283 28.3811 212.672 28.3772 216.206V271.855C28.3812 275.39 29.7858 278.778 32.2829 281.278C34.78 283.777 38.1657 285.183 41.6971 285.187H97.2932C100.825 285.183 104.21 283.777 106.707 281.278C109.204 278.778 110.609 275.39 110.613 271.855V216.206C110.609 212.672 109.205 209.283 106.708 206.783C104.21 204.284 100.825 202.878 97.2932 202.874H41.6971Z" fill="#6C63FF"/>
<path d="M293.04 286.347H237.444C233.606 286.342 229.926 284.814 227.211 282.097C224.497 279.381 222.97 275.697 222.966 271.855V216.206C222.97 212.364 224.497 208.681 227.211 205.964C229.926 203.247 233.606 201.719 237.444 201.715H293.04C296.879 201.719 300.559 203.247 303.273 205.964C305.987 208.681 307.514 212.364 307.518 216.206V271.855C307.514 275.697 305.987 279.381 303.273 282.097C300.559 284.814 296.879 286.342 293.04 286.347Z" fill="#6C63FF"/>
<path d="M194.586 286.347H138.99C135.152 286.342 131.472 284.814 128.758 282.097C126.043 279.381 124.517 275.697 124.512 271.855V216.206C124.517 212.364 126.043 208.681 128.758 205.964C131.472 203.247 135.152 201.719 138.99 201.715H194.586C198.425 201.719 202.105 203.247 204.819 205.964C207.534 208.681 209.06 212.364 209.065 216.206V271.855C209.06 275.697 207.534 279.381 204.819 282.097C202.105 284.814 198.425 286.342 194.586 286.347Z" fill="#6C63FF"/>
<path d="M97.2932 408.078H41.6971C37.8586 408.073 34.1785 406.545 31.4643 403.828C28.75 401.111 27.2232 397.428 27.2189 393.586V337.937C27.2233 334.095 28.75 330.412 31.4643 327.695C34.1785 324.978 37.8586 323.45 41.6971 323.446H97.2932C101.132 323.45 104.812 324.978 107.526 327.695C110.24 330.412 111.767 334.095 111.771 337.937V393.586C111.767 397.428 110.24 401.111 107.526 403.828C104.812 406.545 101.132 408.073 97.2932 408.078Z" fill="#6C63FF"/>
<path d="M293.04 408.078H237.444C233.606 408.073 229.926 406.545 227.211 403.828C224.497 401.111 222.97 397.428 222.966 393.586V337.937C222.97 334.095 224.497 330.412 227.211 327.695C229.926 324.978 233.606 323.45 237.444 323.446H293.04C296.879 323.45 300.559 324.978 303.273 327.695C305.987 330.412 307.514 334.095 307.518 337.937V393.586C307.514 397.428 305.987 401.111 303.273 403.828C300.559 406.545 296.879 408.073 293.04 408.078Z" fill="#6C63FF"/>
<path d="M194.586 408.078H138.99C135.152 408.073 131.472 406.545 128.758 403.828C126.043 401.111 124.517 397.428 124.512 393.586V337.937C124.517 334.095 126.043 330.412 128.758 327.695C131.472 324.978 135.152 323.45 138.99 323.446H194.586C198.425 323.45 202.105 324.978 204.819 327.695C207.534 330.412 209.06 334.095 209.065 337.937V393.586C209.06 397.428 207.534 401.111 204.819 403.828C202.105 406.545 198.425 408.073 194.586 408.078Z" fill="#6C63FF"/>
<path d="M306.782 377.355H21.0035C15.435 377.349 10.0963 375.132 6.15877 371.19C2.22121 367.249 0.00629064 361.906 0 356.332V243.026C0.00629064 237.453 2.22121 232.109 6.15877 228.168C10.0963 224.226 15.435 222.009 21.0035 222.003H306.782C312.351 222.009 317.689 224.226 321.627 228.168C325.564 232.109 327.779 237.453 327.786 243.026V356.332C327.779 361.906 325.564 367.249 321.627 371.19C317.689 375.132 312.351 377.349 306.782 377.355Z" fill="white"/>
<path d="M306.782 377.355H21.0035C15.435 377.349 10.0963 375.132 6.15877 371.19C2.22121 367.249 0.00629064 361.906 0 356.332V243.026C0.00629064 237.453 2.22121 232.109 6.15877 228.168C10.0963 224.226 15.435 222.009 21.0035 222.003H306.782C312.351 222.009 317.689 224.226 321.627 228.168C325.564 232.109 327.779 237.453 327.786 243.026V356.332C327.779 361.906 325.564 367.249 321.627 371.19C317.689 375.132 312.351 377.349 306.782 377.355ZM76.2349 224.322C56.6305 224.322 37.8291 232.117 23.9667 245.992C10.1043 259.868 2.31651 278.687 2.31651 298.31V356.332C2.31651 358.788 2.79987 361.22 3.73898 363.49C4.67809 365.759 6.05454 367.821 7.78979 369.558C9.52504 371.295 11.5851 372.673 13.8523 373.613C16.1195 374.553 18.5495 375.036 21.0035 375.036H306.782C309.236 375.036 311.666 374.553 313.933 373.613C316.2 372.673 318.26 371.295 319.996 369.558C321.731 367.821 323.107 365.759 324.047 363.49C324.986 361.22 325.469 358.788 325.469 356.332V243.026C325.469 238.066 323.5 233.308 319.996 229.8C316.491 226.293 311.738 224.322 306.782 224.322H76.2349Z" fill="#E6E6E6"/>
<path d="M529.322 270.696L467.843 277.835L443.611 319.388L440.136 333.3L441.709 342.865L437.82 349.531L440.136 362.284L430.87 463.147L456.352 576.762H480.096L472.567 471.262L492.257 380.833L509.631 468.943L589.979 538.982L608.694 512.127L546.695 459.669L540.904 441.119L548.707 425.436L554.803 321.707L529.322 270.696Z" fill="#2F2E41"/>
<path d="M503.261 314.171C503.261 314.171 543.809 316.255 544.379 301.998C544.949 287.741 535.826 272.636 531.638 271.855C527.45 271.074 528.97 258.522 531.173 249.827C533.375 241.132 531.662 237.099 529.044 236.797C526.426 236.495 465.618 153.602 465.618 153.602L452.298 154.182L438.978 144.327L418.129 152.443L413.496 170.992L400.756 182.586L408.052 233.553C408.052 233.553 416.132 254.124 427.238 275.098C430.693 281.624 434.442 288.188 438.331 294.184C447.492 308.308 457.433 319.276 466.165 319.153C490.52 318.808 503.261 314.171 503.261 314.171Z" fill="#6C63FF"/>
<path d="M352.884 260.013L345.583 263.388L343.893 264.166L341.187 265.427L284.837 291.469C283.578 292.838 281.901 293.751 280.069 294.064C278.237 294.378 276.353 294.074 274.712 293.202C272.834 292.183 271.437 290.46 270.827 288.41C270.218 286.361 270.447 284.153 271.463 282.272C271.499 282.205 271.541 282.149 271.577 282.083C272.658 280.165 274.443 278.746 276.553 278.124C278.663 277.503 280.931 277.73 282.877 278.756C283.266 278.976 283.638 279.226 283.989 279.505L285.451 278.574L290.04 275.661L293.508 273.461L300.401 269.07L303.076 267.372L311.746 261.863L320.109 256.552L330.241 250.113L338.029 245.159L340.454 247.584L352.884 260.013Z" fill="#FFB6B6"/>
<path d="M367.47 258.826C366.478 259.255 365.442 259.572 364.379 259.771C361.012 259.818 363.991 256.847 357.745 261.641C352.672 265.525 351.078 261.285 350.733 263.357C350.158 266.778 347.443 264.146 345.583 263.388C344.758 263.044 344.112 263.08 343.893 264.166C343.802 264.669 343.78 265.182 343.829 265.69C343.937 267.659 342.831 267.149 341.187 265.427C338.473 262.567 334.302 256.388 331.86 252.608C331.152 251.543 330.597 250.66 330.241 250.113C329.984 249.705 329.844 249.469 329.844 249.469C330.121 248.246 330.828 247.163 331.836 246.418C333.914 244.732 336.34 243.527 338.938 242.889C340.74 242.441 342.581 242.173 344.435 242.09C345.133 242.065 345.81 241.841 346.386 241.445L346.397 241.439C346.703 241.148 346.942 240.794 347.096 240.401C347.25 240.007 347.316 239.585 347.288 239.164C347.397 237.051 350.013 236.632 352.705 236.623C355.241 236.631 357.86 236.983 358.509 236.597C359.444 236.04 380.168 205.489 393.39 185.912C396.296 181.61 400.763 178.612 405.843 177.557C410.923 176.501 416.213 177.472 420.589 180.261L429.847 186.162C433.317 187.54 436.112 190.221 437.634 193.633C438.767 196.56 438.978 199.764 438.239 202.815C437.2 207.106 435.388 211.171 432.891 214.811C420.098 234.681 379.342 254.37 367.47 258.826Z" fill="#6C63FF"/>
<path d="M535.981 221.371L540.67 227.911L541.752 229.425L543.501 231.846L579.69 282.318C581.271 283.297 582.483 284.773 583.136 286.514C583.79 288.256 583.848 290.165 583.302 291.943C582.657 293.982 581.23 295.68 579.334 296.666C577.439 297.652 575.23 297.844 573.192 297.201C573.12 297.178 573.057 297.147 572.985 297.124C570.9 296.423 569.17 294.937 568.162 292.981C567.154 291.024 566.948 288.751 567.587 286.645C567.73 286.221 567.905 285.808 568.112 285.411L566.923 284.149L563.198 280.188L560.385 277.196L554.775 271.248L552.605 268.94L545.563 261.458L538.774 254.241L530.543 245.497L524.213 238.777L526.134 235.936L535.981 221.371Z" fill="#FFB6B6"/>
<path d="M532.062 207.258C532.67 208.152 533.177 209.111 533.573 210.118C534.254 213.419 530.777 211.052 536.66 216.286C541.428 220.539 537.57 222.906 539.667 222.855C543.132 222.773 541.063 225.939 540.67 227.911C540.489 228.787 540.646 229.415 541.752 229.425C542.263 229.42 542.77 229.344 543.26 229.2C545.171 228.722 544.88 229.905 543.501 231.846C541.208 235.054 535.933 240.321 532.685 243.435C531.774 244.332 531.012 245.045 530.543 245.497C530.191 245.827 529.986 246.009 529.986 246.009C528.734 245.968 527.538 245.478 526.617 244.628C524.57 242.903 522.93 240.746 521.814 238.312C521.034 236.627 520.424 234.867 519.992 233.06C519.835 232.379 519.488 231.756 518.991 231.265L518.982 231.255C518.639 231.009 518.247 230.841 517.832 230.764C517.417 230.686 516.99 230.702 516.582 230.808C514.489 231.1 513.584 228.608 513.066 225.964C512.595 223.47 512.447 220.829 511.945 220.264C510.881 219.065 480.163 200.789 480.163 200.789L448.995 159.665C449.691 155.994 451.794 152.741 454.854 150.601C457.512 148.934 460.615 148.122 463.748 148.273C468.154 148.484 472.484 149.497 476.526 151.264C498.437 160.087 525.449 196.43 532.062 207.258Z" fill="#6C63FF"/>
<path d="M416.355 143.212C431.103 143.212 443.059 131.245 443.059 116.483C443.059 101.72 431.103 89.7532 416.355 89.7532C401.606 89.7532 389.65 101.72 389.65 116.483C389.65 131.245 401.606 143.212 416.355 143.212Z" fill="#FFB6B6"/>
<path d="M446.773 122.114C446.773 122.114 441.26 129.94 437.82 132.734C437.854 128.665 437.183 121.882 437.217 117.825C437.345 115.694 437.13 113.557 436.58 111.495C436.292 110.467 435.762 109.523 435.035 108.742C434.307 107.962 433.403 107.367 432.399 107.008C431.409 106.725 430.355 106.76 429.387 107.109C428.418 107.459 427.584 108.104 427.002 108.954C426.421 109.805 426.121 110.817 426.146 111.847C426.171 112.877 426.519 113.873 427.14 114.694C425.403 115.054 423.897 113.373 423.214 111.727C422.531 110.08 422.172 108.179 420.828 106.996C420.139 106.463 419.325 106.115 418.463 105.985C417.602 105.855 416.721 105.948 415.905 106.254C414.278 106.878 412.807 107.852 411.597 109.106C407.948 112.503 404.925 116.631 400.744 119.367C399.905 119.916 399.017 120.386 398.091 120.769C397.352 117.984 395.68 115.536 393.354 113.837C393.825 116.493 393.798 119.213 393.273 121.859C390.942 122.046 388.627 121.337 386.798 119.877C384.836 118.095 383.599 115.651 383.324 113.013C383.167 111.818 383.132 110.61 383.22 109.408C383.849 109.057 384.443 108.646 384.992 108.179C386.212 107.181 387.224 105.952 387.968 104.562C386.566 105.017 385.117 105.313 383.648 105.443C383.66 105.35 383.671 105.269 383.683 105.176C383.842 103.181 384.503 101.259 385.606 99.5883C386.833 98.0231 389.161 97.1305 390.887 98.1391C391.868 94.9067 393.482 91.9023 395.636 89.3012C397.789 86.7001 400.439 84.5545 403.43 82.9896C406.421 81.4246 409.694 80.4718 413.057 80.1866C416.42 79.9014 419.806 80.2897 423.017 81.3286C422.336 82.7489 421.938 84.2887 421.847 85.8616C423.149 84.6556 424.601 83.623 426.168 82.7894C426.935 83.205 427.595 83.7949 428.093 84.5116C428.592 85.2283 428.916 86.052 429.04 86.9166C431.252 87.3224 435.492 87.8441 433.986 89.386C439.811 92.2627 444.352 97.2143 446.717 103.269C449.083 109.324 449.103 116.045 446.773 122.114Z" fill="#2F2E41"/>
<path d="M144.467 276.847L40.3522 275.63C40.2026 275.629 40.0545 275.599 39.9165 275.542C39.7785 275.484 39.6532 275.399 39.5477 275.293C39.4423 275.187 39.3588 275.061 39.3021 274.922C39.2453 274.784 39.2164 274.635 39.2169 274.485C39.2175 274.336 39.2474 274.188 39.3052 274.049C39.3629 273.911 39.4473 273.786 39.5535 273.68C39.6596 273.575 39.7855 273.491 39.924 273.434C40.0624 273.378 40.2106 273.349 40.3603 273.349L144.475 274.566C144.777 274.567 145.067 274.688 145.28 274.903C145.493 275.117 145.612 275.408 145.611 275.71C145.61 276.013 145.488 276.302 145.274 276.515C145.06 276.729 144.769 276.848 144.467 276.847Z" fill="#CCCCCC"/>
<path d="M197.747 295.396L40.3522 294.179C40.2026 294.179 40.0545 294.149 39.9165 294.091C39.7785 294.033 39.6532 293.949 39.5477 293.842C39.4423 293.736 39.3588 293.61 39.3021 293.472C39.2453 293.333 39.2164 293.185 39.2169 293.035C39.2175 292.885 39.2474 292.737 39.3052 292.599C39.3629 292.461 39.4473 292.335 39.5535 292.23C39.6596 292.124 39.7855 292.041 39.924 291.984C40.0624 291.927 40.2106 291.898 40.3603 291.899L197.755 293.115C198.057 293.116 198.346 293.238 198.559 293.452C198.772 293.667 198.891 293.957 198.89 294.26C198.889 294.562 198.768 294.852 198.554 295.065C198.339 295.278 198.049 295.397 197.747 295.396Z" fill="#CCCCCC"/>
<path d="M261.35 309.823C274.783 309.823 285.673 298.923 285.673 285.477C285.673 272.031 274.783 261.131 261.35 261.131C247.916 261.131 237.026 272.031 237.026 285.477C237.026 298.923 247.916 309.823 261.35 309.823Z" fill="#6C63FF"/>
<path d="M269.929 291.384L261.349 271.031L252.771 291.384L260.191 288.23V300.549H262.508V288.23L269.929 291.384Z" fill="white"/>
<path d="M285.673 332.431H42.44C41.672 332.431 40.9355 332.736 40.3925 333.279C39.8495 333.823 39.5444 334.56 39.5444 335.329C39.5444 336.098 39.8495 336.835 40.3925 337.378C40.9355 337.922 41.672 338.227 42.44 338.227H285.673C286.441 338.227 287.178 337.922 287.721 337.378C288.264 336.835 288.569 336.098 288.569 335.329C288.569 334.56 288.264 333.823 287.721 333.279C287.178 332.736 286.441 332.431 285.673 332.431Z" fill="#F2F2F2"/>
<path d="M223 332V338H43.7347C42.7442 338 41.7943 337.684 41.0939 337.121C40.3935 336.559 40 335.796 40 335C40 334.204 40.3935 333.441 41.0939 332.879C41.7943 332.316 42.7442 332 43.7347 332H223Z" fill="#6C63FF"/>
<path d="M607.286 589.905C607.825 589.93 608.358 589.789 608.813 589.5C609.268 589.211 609.624 588.79 609.832 588.292C610.04 587.794 610.09 587.245 609.975 586.718C609.861 586.19 609.587 585.711 609.191 585.345L609.011 584.628C609.035 584.571 609.059 584.514 609.083 584.456C609.625 583.174 610.534 582.081 611.695 581.314C612.856 580.547 614.218 580.141 615.609 580.146C617 580.151 618.359 580.567 619.514 581.343C620.67 582.119 621.57 583.219 622.103 584.505C624.233 589.639 626.944 594.781 627.611 600.209C627.905 602.609 627.781 605.041 627.245 607.398C632.247 596.477 634.844 584.607 634.861 572.593C634.862 569.579 634.694 566.566 634.359 563.57C634.082 561.114 633.698 558.676 633.207 556.254C630.526 543.118 624.771 530.805 616.412 520.327C612.367 518.118 609.096 514.72 607.039 510.592C606.294 509.109 605.767 507.525 605.475 505.89C605.932 505.95 607.196 498.993 606.852 498.567C607.488 497.601 608.626 497.121 609.32 496.178C612.775 491.49 617.534 492.309 620.018 498.679C625.326 501.36 625.377 505.807 622.12 510.083C620.049 512.804 619.764 516.485 617.946 519.398C618.133 519.638 618.328 519.87 618.515 520.11C621.933 524.51 624.913 529.235 627.411 534.217C626.804 528.636 627.529 522.99 629.527 517.743C631.551 512.854 635.347 508.736 638.689 504.51C639.573 503.374 640.773 502.526 642.138 502.074C643.504 501.621 644.972 501.584 646.359 501.966C647.745 502.349 648.987 503.134 649.927 504.223C650.868 505.312 651.465 506.656 651.643 508.084C651.65 508.147 651.656 508.209 651.663 508.271C651.166 508.551 650.68 508.849 650.205 509.164C649.608 509.563 649.145 510.134 648.877 510.801C648.609 511.468 648.549 512.201 648.705 512.903C648.86 513.605 649.224 514.244 649.748 514.735C650.272 515.227 650.933 515.549 651.642 515.658L651.715 515.669C651.538 517.46 651.226 519.235 650.78 520.978C655.068 537.575 645.811 543.62 632.594 543.892C632.302 544.041 632.018 544.191 631.726 544.334C634.236 551.452 635.81 558.868 636.409 566.393C636.748 570.833 636.728 575.293 636.349 579.729L636.372 579.572C637.329 574.639 639.959 570.187 643.815 566.97C649.544 562.26 657.636 560.525 663.816 556.739C664.473 556.317 665.237 556.092 666.017 556.09C666.798 556.088 667.562 556.31 668.221 556.729C668.88 557.148 669.405 557.746 669.735 558.454C670.065 559.162 670.186 559.95 670.084 560.724L670.059 560.89C669.137 561.265 668.24 561.698 667.373 562.185C666.876 562.465 666.39 562.763 665.915 563.078C665.318 563.477 664.855 564.048 664.587 564.715C664.32 565.382 664.259 566.115 664.415 566.817C664.57 567.519 664.934 568.157 665.458 568.649C665.982 569.141 666.643 569.462 667.353 569.572L667.425 569.583C667.478 569.591 667.523 569.598 667.575 569.606C666.001 573.367 663.792 576.83 661.044 579.842C658.363 594.33 646.848 595.705 634.531 591.486H634.524C633.172 597.364 631.214 603.085 628.681 608.558H607.809C607.734 608.326 607.667 608.087 607.6 607.854C609.532 607.976 611.471 607.86 613.375 607.51C611.827 605.608 610.278 603.691 608.729 601.789C608.695 601.754 608.662 601.716 608.632 601.677C607.847 600.703 607.054 599.737 606.268 598.764L606.268 598.763C606.226 595.779 606.569 592.802 607.286 589.905Z" fill="#F2F2F2"/>
<path d="M376.869 608.62C376.869 608.802 376.904 608.981 376.973 609.149C377.042 609.317 377.144 609.469 377.272 609.597C377.4 609.725 377.552 609.827 377.72 609.896C377.887 609.965 378.067 610.001 378.248 610H671.622C671.987 610 672.338 609.855 672.596 609.596C672.855 609.337 673 608.986 673 608.62C673 608.254 672.855 607.904 672.596 607.645C672.338 607.386 671.987 607.241 671.622 607.241H378.248C378.067 607.24 377.887 607.276 377.72 607.345C377.552 607.414 377.4 607.515 377.272 607.644C377.144 607.772 377.042 607.924 376.973 608.092C376.904 608.259 376.869 608.439 376.869 608.62Z" fill="#CCCCCC"/>
<path d="M41.4915 324V307.636H47.3722V324H41.4915ZM44.4318 305.932C43.6364 305.932 42.9545 305.669 42.3864 305.143C41.8182 304.618 41.5341 303.986 41.5341 303.247C41.5341 302.509 41.8182 301.876 42.3864 301.351C42.9545 300.825 43.6364 300.562 44.4318 300.562C45.2344 300.562 45.9162 300.825 46.4773 301.351C47.0455 301.876 47.3295 302.509 47.3295 303.247C47.3295 303.986 47.0455 304.618 46.4773 305.143C45.9162 305.669 45.2344 305.932 44.4318 305.932ZM50.2832 324V302.182H59.7008C61.3201 302.182 62.737 302.501 63.9515 303.141C65.166 303.78 66.1106 304.678 66.7853 305.836C67.46 306.994 67.7974 308.347 67.7974 309.895C67.7974 311.457 67.4494 312.81 66.7534 313.954C66.0645 315.097 65.095 315.978 63.845 316.596C62.6021 317.214 61.1497 317.523 59.4877 317.523H53.8627V312.92H58.2946C58.9906 312.92 59.5836 312.8 60.0737 312.558C60.5708 312.31 60.9508 311.958 61.2136 311.504C61.4835 311.049 61.6184 310.513 61.6184 309.895C61.6184 309.27 61.4835 308.737 61.2136 308.297C60.9508 307.849 60.5708 307.509 60.0737 307.274C59.5836 307.033 58.9906 306.912 58.2946 306.912H56.2065V324H50.2832ZM77.5879 324.298C75.8123 324.298 74.2924 323.947 73.0282 323.244C71.764 322.533 70.7946 321.546 70.1199 320.282C69.4451 319.011 69.1078 317.537 69.1078 315.861C69.1078 314.185 69.4451 312.714 70.1199 311.45C70.7946 310.179 71.764 309.192 73.0282 308.489C74.2924 307.778 75.8123 307.423 77.5879 307.423C79.3635 307.423 80.8833 307.778 82.1476 308.489C83.4118 309.192 84.3812 310.179 85.0559 311.45C85.7306 312.714 86.068 314.185 86.068 315.861C86.068 317.537 85.7306 319.011 85.0559 320.282C84.3812 321.546 83.4118 322.533 82.1476 323.244C80.8833 323.947 79.3635 324.298 77.5879 324.298ZM77.6305 319.952C78.1277 319.952 78.5574 319.785 78.9196 319.451C79.2818 319.117 79.5623 318.641 79.7612 318.023C79.96 317.406 80.0595 316.67 80.0595 315.818C80.0595 314.959 79.96 314.224 79.7612 313.613C79.5623 312.995 79.2818 312.519 78.9196 312.185C78.5574 311.852 78.1277 311.685 77.6305 311.685C77.1049 311.685 76.6539 311.852 76.2775 312.185C75.9011 312.519 75.6135 312.995 75.4146 313.613C75.2157 314.224 75.1163 314.959 75.1163 315.818C75.1163 316.67 75.2157 317.406 75.4146 318.023C75.6135 318.641 75.9011 319.117 76.2775 319.451C76.6539 319.785 77.1049 319.952 77.6305 319.952ZM94.3777 324.213C93.2129 324.213 92.1404 323.908 91.1603 323.297C90.1873 322.686 89.4061 321.759 88.8166 320.516C88.2342 319.273 87.943 317.707 87.943 315.818C87.943 313.844 88.2484 312.239 88.8592 311.003C89.4771 309.767 90.2725 308.862 91.2456 308.286C92.2257 307.711 93.2555 307.423 94.335 307.423C95.1447 307.423 95.8549 307.565 96.4657 307.849C97.0765 308.126 97.5879 308.499 97.9998 308.968C98.4118 309.43 98.7243 309.937 98.9373 310.491H99.0226V302.182H104.903V324H99.0652V321.315H98.9373C98.71 321.869 98.3833 322.366 97.9572 322.807C97.5382 323.24 97.0268 323.585 96.4231 323.84C95.8265 324.089 95.1447 324.213 94.3777 324.213ZM96.551 319.696C97.0907 319.696 97.5524 319.54 97.9359 319.227C98.3265 318.908 98.6248 318.46 98.8308 317.885C99.0439 317.303 99.1504 316.614 99.1504 315.818C99.1504 315.009 99.0439 314.316 98.8308 313.741C98.6248 313.158 98.3265 312.714 97.9359 312.409C97.5524 312.097 97.0907 311.94 96.551 311.94C96.0112 311.94 95.5495 312.097 95.166 312.409C94.7896 312.714 94.4984 313.158 94.2924 313.741C94.0936 314.316 93.9941 315.009 93.9941 315.818C93.9941 316.628 94.0936 317.324 94.2924 317.906C94.4984 318.482 94.7896 318.925 95.166 319.238C95.5495 319.543 96.0112 319.696 96.551 319.696ZM113.671 302.182V324H107.79V302.182H113.671ZM124.551 324.298C122.775 324.298 121.255 323.947 119.991 323.244C118.727 322.533 117.757 321.546 117.083 320.282C116.408 319.011 116.071 317.537 116.071 315.861C116.071 314.185 116.408 312.714 117.083 311.45C117.757 310.179 118.727 309.192 119.991 308.489C121.255 307.778 122.775 307.423 124.551 307.423C126.326 307.423 127.846 307.778 129.11 308.489C130.375 309.192 131.344 310.179 132.019 311.45C132.694 312.714 133.031 314.185 133.031 315.861C133.031 317.537 132.694 319.011 132.019 320.282C131.344 321.546 130.375 322.533 129.11 323.244C127.846 323.947 126.326 324.298 124.551 324.298ZM124.593 319.952C125.091 319.952 125.52 319.785 125.882 319.451C126.245 319.117 126.525 318.641 126.724 318.023C126.923 317.406 127.022 316.67 127.022 315.818C127.022 314.959 126.923 314.224 126.724 313.613C126.525 312.995 126.245 312.519 125.882 312.185C125.52 311.852 125.091 311.685 124.593 311.685C124.068 311.685 123.617 311.852 123.24 312.185C122.864 312.519 122.576 312.995 122.377 313.613C122.179 314.224 122.079 314.959 122.079 315.818C122.079 316.67 122.179 317.406 122.377 318.023C122.576 318.641 122.864 319.117 123.24 319.451C123.617 319.785 124.068 319.952 124.593 319.952ZM143.301 330.477C141.66 330.477 140.254 330.243 139.082 329.774C137.917 329.312 137.012 328.673 136.365 327.857C135.726 327.047 135.368 326.116 135.289 325.065H140.957C141.014 325.413 141.156 325.694 141.383 325.907C141.61 326.12 141.902 326.273 142.257 326.365C142.619 326.464 143.024 326.514 143.471 326.514C144.231 326.514 144.86 326.33 145.357 325.96C145.861 325.591 146.113 324.923 146.113 323.957V321.188H145.943C145.73 321.741 145.403 322.214 144.963 322.604C144.522 322.988 143.993 323.283 143.375 323.489C142.757 323.687 142.079 323.787 141.341 323.787C140.176 323.787 139.103 323.517 138.123 322.977C137.15 322.437 136.369 321.582 135.779 320.41C135.197 319.238 134.906 317.707 134.906 315.818C134.906 313.844 135.211 312.239 135.822 311.003C136.44 309.767 137.235 308.862 138.208 308.286C139.189 307.711 140.218 307.423 141.298 307.423C142.108 307.423 142.818 307.565 143.429 307.849C144.039 308.126 144.551 308.499 144.963 308.968C145.375 309.43 145.687 309.937 145.9 310.491H146.028V307.636H151.909V323.957C151.909 325.342 151.55 326.518 150.833 327.484C150.123 328.457 149.121 329.199 147.828 329.71C146.536 330.222 145.027 330.477 143.301 330.477ZM143.514 319.611C144.054 319.611 144.515 319.462 144.899 319.163C145.289 318.858 145.588 318.425 145.794 317.864C146.007 317.295 146.113 316.614 146.113 315.818C146.113 315.009 146.007 314.316 145.794 313.741C145.588 313.158 145.289 312.714 144.899 312.409C144.515 312.097 144.054 311.94 143.514 311.94C142.974 311.94 142.512 312.097 142.129 312.409C141.752 312.714 141.461 313.158 141.255 313.741C141.056 314.316 140.957 315.009 140.957 315.818C140.957 316.628 141.056 317.317 141.255 317.885C141.461 318.446 141.752 318.876 142.129 319.174C142.512 319.465 142.974 319.611 143.514 319.611ZM159.459 324.256C158.415 324.256 157.492 324.085 156.689 323.744C155.894 323.396 155.269 322.871 154.814 322.168C154.36 321.464 154.133 320.57 154.133 319.483C154.133 318.588 154.285 317.825 154.591 317.192C154.896 316.553 155.322 316.031 155.869 315.626C156.416 315.222 157.052 314.913 157.776 314.7C158.508 314.487 159.296 314.348 160.141 314.284C161.057 314.213 161.792 314.128 162.346 314.028C162.907 313.922 163.312 313.776 163.561 313.592C163.809 313.4 163.934 313.148 163.934 312.835V312.793C163.934 312.366 163.77 312.04 163.444 311.812C163.117 311.585 162.698 311.472 162.187 311.472C161.626 311.472 161.167 311.596 160.812 311.844C160.464 312.086 160.255 312.459 160.184 312.963H154.772C154.843 311.969 155.159 311.053 155.72 310.214C156.288 309.369 157.116 308.695 158.202 308.19C159.289 307.679 160.645 307.423 162.272 307.423C163.444 307.423 164.495 307.562 165.425 307.839C166.356 308.109 167.148 308.489 167.801 308.979C168.454 309.462 168.952 310.03 169.292 310.683C169.64 311.33 169.814 312.033 169.814 312.793V324H164.317V321.699H164.189C163.863 322.31 163.465 322.803 162.996 323.18C162.535 323.556 162.006 323.83 161.409 324C160.819 324.17 160.17 324.256 159.459 324.256ZM161.377 320.548C161.824 320.548 162.243 320.456 162.634 320.271C163.032 320.087 163.355 319.82 163.604 319.472C163.852 319.124 163.976 318.702 163.976 318.205V316.841C163.82 316.905 163.653 316.965 163.476 317.022C163.305 317.079 163.121 317.132 162.922 317.182C162.73 317.232 162.524 317.278 162.304 317.32C162.091 317.363 161.867 317.402 161.633 317.438C161.178 317.509 160.805 317.626 160.514 317.789C160.23 317.945 160.017 318.141 159.875 318.375C159.74 318.602 159.672 318.858 159.672 319.142C159.672 319.597 159.832 319.945 160.152 320.186C160.471 320.428 160.88 320.548 161.377 320.548Z" fill="black"/>
</g>
<defs>
<clipPath id="clip0_2_80">
<rect width="673" height="610" fill="white"/>
</clipPath>
</defs>
</svg>
